<?xml version="1.0" encoding="UTF-8"?>
<svg id="Lag_2" data-name="Lag 2" xmlns="http://www.w3.org/2000/svg" viewBox="0 0 2972.22 2234.25">
  <defs>
    <style>
      .cls-1 {
        fill: #ff3400;
      }
    </style>
  </defs>
  <g id="Lag_1-2" data-name="Lag 1">
    <path class="cls-1" d="M1565.6,2118.3c9.87,33.05-85.94,26.06-103.6,24.25-11.99-1.23-34.95,6.55-29.05,23.11,6.91,19.4,46.39,23.57,51.1,41.65,1.15,4.41-2.49,13.77-5.69,19.09-2.76,4.6-15.08,8.61-20.31,7.74s-5.02-16.46-8.58-20.17c-7.87-7.69-26.81-18.9-34.73-27.37-14.51-15.52-11.21-34.91-.24-50.74-43.46-15.22-107.87-33.58-94.16-93.64-44.64-18.68-90.6-39.84-90.89-92.58-42.79-26.5-76.28-37.63-88.99-94.31-44.38-31.66-67.53-37.96-87.55-95.19-28.44-22.23-62.91-39.64-76.96-75.76-5.01-12.87-11.56-23.48-23.36-30.65-34.4-20.88-58.98-50.34-72.53-86.33-39.48-23.07-68.66-54.6-85.64-94.6-38.3-23.86-66.92-55.33-85.45-94.76-37.29-24.76-65.75-56.05-85.2-94.75-36.65-25.27-64.48-56.92-85.45-94.95-35.28-26.41-64.47-56.35-84.13-95.65-39.88-21.55-58.33-62.25-87.81-91.93-31.01-31.21-57.16-62.75-85.54-94.72l-84.47-95.17c-28.29-31.88-56.85-60.16-82.68-94.29-23.53-31.08-60.24-52.27-76.88-90.04-26.44-59.99-21.5-26.92-34.83-100.87-7.95-44.09,9.16-88.42,32.29-125.65C147.26,218.13,502.51,109.45,703.41,68.61,868.94,34.96,1034.24.04,1204.44.03L1847.81,0c166.48,0,328.05,34.39,489.77,67.91,116.65,24.18,226.18,58.83,334.85,104.5,145.6,61.2,375.68,200.76,275.14,389.17-20.99,39.34-55.02,64.77-82.79,98.08-27.53,33.03-54.48,63.59-85.12,95.2-29.18,30.11-48.56,69.8-87.6,92.15-19.92,39.07-49.35,68.85-84.27,95.65-20.89,37.94-49.51,68.83-85.01,94.71-20.07,38.45-48.52,69.6-85.19,94.78-19.16,39.25-47.76,70.48-85.45,94.78-17.61,39.8-47,70.78-85.5,94.81-16.46,41.5-47.41,72.29-86.76,95.74-11.79,35.84-36.27,63.73-69.08,83.51-13.43,8.1-20.74,18.12-25.73,32.58-12.73,36.92-49.79,52.49-77.05,75.74-18.91,54.98-40.38,64.61-89.75,94.12-3.62,53.41-46.69,72.68-90.46,94.39,10.1,56.76-53.77,77.87-94.71,94.75,13.59,20.64,8.04,43.78-12.22,57.92-31.2,21.78-95.58,36.1-94.76,36.62l6.68,4.18c8.02,5.01,18.34,15.42,19.98,23.7,6.31,31.85-52.03,45.69-77.55,49.49-77.03,11.46-152.64,4.61-227.52-13.26-20.22,34.82,73.44,63.37,99.74,60.83,17.56-1.7,107.73-28.57,118.13,6.24ZM966.64,157.31c368.37-51.98,737.56-52.81,1102.98-1.9,142,19.78,278.93,49.3,414.17,93.36,144.12,46.94,426.61,163.48,398.83,354.18,61.44-58.98,84.61-139.5,40.6-213.89-21.68-36.64-51.11-66.82-85.36-93.1-198.21-152.01-564.05-225.62-810.96-255.09C1665.36-2.28,1301.63,1.29,941.12,51.77c-247.21,34.61-606.63,116-802.63,272.32-36.17,28.84-66.8,61.08-89.36,101.22-31.61,56.24-32.67,123.54,3.53,177.85,6.53,9.79,21.39,17.91,34.05,26.27-.99-54.07,16.65-103,51.7-146.04,161.15-197.83,580.05-291.04,828.22-326.07ZM1970.77,248.38c177.23,22.97,408.26,72.14,557.33,164.26,104.91,45.59,258.28,127.43,269.42,259.17,12.72-8.09,34.37-18.29,42.38-31.37,29.94-48.88,21.22-107.54-10.06-153.79-129.25-191.15-566.52-279.27-784.86-308.51-348.16-46.61-699.59-45.53-1047.89.99-204.11,27.26-437.17,79.3-622.48,165.8-111.32,51.96-291.46,161.73-256.73,307.1l59.95,34.39c23.22-99.08,114.16-165.8,197.62-214.19,117.06-138.47,459.51-202.87,634.43-225.12,318.86-40.56,639.47-40.41,960.89,1.26ZM2770.83,689.53c5.4-103.73-102.52-175.35-171.12-213.29,31.35,47.58,34.67,96.17,6.86,140.59,40.76,30.92,72.37,64.11,92.33,110.9l71.93-38.2ZM285.82,737.98c25.29-42.23,56.67-71.91,93.35-101.19-27.52-34.3-43.1-76.13-27.48-118.91-62.24,36.79-139.07,104.94-149.09,181.88l83.22,38.21ZM2579.3,778.76l95.8-39.69c-17.48-43.79-47.52-74.12-83.68-100.7-29.05,30.64-61.69,54.31-95.66,72.93,31.99,19.43,56.49,42.13,83.55,67.47ZM500.85,724.22c-36.54-17.35-70.61-39.68-103.7-67.62-34.5,25.13-63.02,52.21-86.37,90.77l108.62,39.08c26.81-24.22,51.68-43.05,81.45-62.23ZM172.5,713.05l-38.55-20.56c12.69,16.63,24.21,23.62,39.77,33.25.79-1.97,1.12-11.44-1.22-12.69ZM2418.78,827.67l132.64-39.48c-25.56-24.84-50.74-44.42-80.75-62.57l-138.77,55.03,86.88,47.02ZM2709.12,769.48c17.83-12.37,37.07-19.66,49.95-41.51l-53.74,25.57,3.8,15.94ZM266.66,782.3l8.33-20.7-71.14-32.29c-1.38,3.91-1.05,16.89,3.18,19.28l59.62,33.71ZM592.38,833.85l81.16-42.68-144.8-52.64c-28.48,15.76-54.93,33.85-79.23,56.87,47.98,15.57,94.64,28.46,142.87,38.44ZM2608.28,824.22l72.49-36.94.1-21.77-86.73,34.93,14.14,23.79ZM380.38,833.29l18.44-25.64-98.43-35.96c-3.03,6.7-5.9,16.49-6.76,24.17l86.75,37.43ZM257.81,805.2l-38.53-17.49c9.77,14.25,24.65,24.19,42.35,33.8,2.52-2.82.15-14.51-3.81-16.31ZM2380.68,836.8c-30.65-19.11-58.37-31.3-89.93-43.81l-210.72,48.23,115.49,34.58,185.16-39ZM933.03,848.42l-216.57-45.7c-30.32,11.78-58.05,24.49-88.55,40.89,65.52,13.8,128.63,28.58,197.06,37.17l108.07-32.36ZM2480.03,874.42l101.89-39.31c-4.23-9.47-8.93-17.99-14.15-25.3l-119.89,37.61c9.56,8.87,20.86,18.56,32.15,27.01ZM521.87,882.16l35.97-28.16-128.77-36.7c-8.81,5.68-16.05,14.99-21.87,25.71l114.67,39.15ZM2622.89,864.26l41.33-26.21c3.63-2.3,7.25-10.19,10.17-18.53l-55.76,28.3c-3.39,1.72.26,16.82,4.26,16.44ZM357.78,878.05l8.62-22.55-74.75-31.94c-3.37,3.55-1.02,18.97,4.33,21.8l61.8,32.69ZM1265.84,927.95c170.74-17.95,333.84-18.02,502.11-2,124.81-8.04,244.3-19.13,369.02-40.45-43.99-12.82-87.81-26.72-132.92-32.48-330.9,45.72-663.4,46.26-994.87,6.08-41.61,6.81-79.29,17.62-120.94,31.47,124.69,19.9,247.45,30.22,377.61,37.39ZM2305.06,923.23l142.95-39.82c-12.9-11.48-22.51-18.98-34.16-27.11l-170.97,38.57,62.18,28.36ZM2515.94,919.41l76.69-36.93-.41-23.19-94.86,36.04,18.57,24.08ZM710,929.55l61.6-29.31-177.91-37.55c-13.54,8.47-24.89,16.35-39.25,28.12l155.56,38.74ZM476.03,928.51l25.04-25.78-108.49-36.74-9.81,24.54,93.25,37.99ZM348.99,902l-46-21.52c12.09,19.15,30.11,28.63,47.29,37.76,1.13-3.41,1.5-14.93-1.29-16.24ZM2038.31,968.54c76.02-.84,146.73-22.66,222.11-35.44-22.66-13.22-45.48-22.85-68.96-29.19l-290.63,39.64c49.5,2.79,91.08,25.51,137.49,24.99ZM2376.58,970.15l112.02-39.7c-6.39-11.28-13.15-20.33-19.93-25.72l-130.64,37.66,38.56,27.76ZM628.81,977.06l43.85-28.81-143.48-36.99c-9.24,7.43-17.02,15.54-25.75,27.26l125.39,38.55ZM1126.91,945.45l-298.08-36.24c-24.88,6.04-49.63,16.55-73.67,29.33,78.57,16.3,154.23,28.48,231.99,37.53l139.77-30.62ZM2531.29,962.79l47.51-30.26c4.57-2.91,8.64-12.44,9.88-18.76l-63.43,29.37,6.04,19.65ZM449.08,974.22l11.84-23.74-82.74-33.52c-.98,5.37-.68,19.4,3.18,22.07l67.72,35.2ZM1067.66,985.16c296.57,31.8,594.43,30.87,893.88-3.45-65.44-10.52-130.4-30.37-197.18-27.73-168.16,6.65-331.52,6.47-499.96,2.14-67.34-1.73-130.34,17.98-196.73,29.04ZM2181.59,1019.23l160.51-39.62c-14.02-12.58-27.34-20.86-42.89-28.36l-194.97,38.45,77.35,29.54ZM2420.59,1015.94l85.1-39.47-5.18-22.77-102.23,36.39,22.32,25.84ZM574.05,1024.19l27.73-27.06-114.14-36.78c-4.53,7.13-9.29,16.24-13.23,25.37l99.64,38.47ZM920.43,994.53l-207.06-37.22c-17.62,7.8-32.72,16.34-49.87,28.73l173.15,38.04,83.77-29.55ZM433.09,994.21l-47.47-22.36c12.86,23.32,32.48,30.32,51.5,42.7l4.49-11.26c.98-2.46-6.06-7.92-8.52-9.08ZM2532.97,988.89c-1.58.46,3.1,6.33,4.2,5.07l6.11-6.99c.76-.87-7.1,1-10.32,1.93ZM1832.29,1063.82c99.14,10.09,199.22-28.95,296.73-33.38-31.72-17.52-58.87-22.71-91.07-31.65-348.33,45.93-699.11,46.32-1048.66,4.5-33,6.78-61.99,13.52-95.35,32,99.79,5.37,203.48,42.03,305.99,31.07,213.42-22.81,419.39-24.22,632.35-2.54ZM2268.92,1065.57l123.42-39.87c-7.33-11.28-15.28-19.97-24.9-26.45l-147.71,37.4,49.19,28.92ZM740.46,1071.9l53.12-28.74-160.06-37.36c-11.02,8.48-20.41,16.78-30,27.47l136.94,38.62ZM2442.08,1058.75l57-34.64,3.43-16.61-68.78,30.04c1.6,5.88,5.31,15.18,8.35,21.21ZM542.49,1069.8l14.17-24.35-88.2-34.17c-2.58,3.43-4.64,20.25.66,22.83l73.36,35.69ZM2229.89,1074.51c-16.46-11.96-35.36-21.75-54.39-28.45l-249.3,38.42,110.83,29.24c64.77-9.24,128.29-22.44,192.86-39.21ZM2323.68,1111.69l91.36-39.22c-.33-8.33-4.72-20.52-9.16-23.85l-110.52,36.59,28.32,26.48ZM983.35,1118.74l117.42-30.99c-86.7-8.53-171.96-20.93-259.75-36.12-20.91,7.28-41.18,16.94-61.01,29.3,70.21,16.49,135.87,28.38,203.33,37.81ZM676.07,1119.58l32.13-28.21-123.32-36.24c-7.17,5.39-13.17,15.25-16.77,25.75l107.96,38.7ZM527.81,1112.43l3.38-19.76-59.68-26.69c12.06,28.07,35.49,30.4,56.3,46.45ZM1655.9,1081.61c-.13-1.62-6.3-8.03-8.65-8.03h-241.67s-37.88,7.6-37.88,7.6l288.2.43ZM2457.48,1077.61l-15.87,9.52,3.88,6.46,15.87-9.52-3.88-6.46ZM1976.09,1123.95c-48.08-13.43-96.07-22.29-148.42-29.83-209.98,17.64-416.8,18.06-626.62,2.66l-153.38,31.25c307.81,38.02,618,38.16,928.42-4.08ZM2296.17,1120.31l-32.89-26.5-171.85,38.19,63.79,28.83,140.94-40.52ZM858.34,1167.01l66.77-29.5-181.83-37.31-39.25,27.87,154.3,38.95ZM2351.22,1155.38l57.45-33.64c4.95-2.9,8.33-14.63,8.11-20.97l-78.11,31.97,12.55,22.64ZM635.75,1165.67l18.44-25.66-95.5-34.75c-2.49,4.24-4.33,15.45-4.1,22.99l81.16,37.43ZM1866.04,1206.31c84.65,8.7,164.27-22.32,246.63-36.4-25.29-11.31-50.36-22.2-76.97-28.38-123.42,18.17-243.39,32.18-367.51,35.93l-48.75,1.47c15.22,4.87,31.84,5.32,48.54,7.03l198.06,20.35ZM2224.56,1207.16l98.97-39.07c.77-9.2-7.03-24.7-14.36-24.51l-121.18,36.43,36.58,27.16ZM1374.28,1185.15c14.82-1.22,29.12,2.24,39.01-3.99-145.86-4.13-285.33-14.92-428.26-35.36-28.7,8.3-55.39,18.59-81.4,29.96,88.76,17.33,172.49,28.98,260.76,37.62,70.25-13.51,137.06-22.26,209.89-28.24ZM780.74,1214.52l39.95-28.43-136.18-36.45c-8.66,5.03-16.78,15.32-22.11,25.9l118.34,38.98ZM617.32,1209.03l5.7-21.15-64.53-28.43c-.05,3.69,2.98,15.28,7.17,17.86l51.65,31.72ZM2377.91,1171.33c-8.28,2.46-16.79,6.5-23.26,14.69,8.79,2.76,11.46-2.04,23.26-14.69ZM2190.34,1216.16c-13.25-12.16-27.62-21.93-42.38-27.23l-208.54,37.95,88.71,28.54c54.75-9.2,105.78-22.53,162.22-39.26ZM993.17,1261.42l91.93-30.39-223.56-36.76-49.48,28.95c59.4,15.09,118.03,28.77,181.12,38.2ZM2259.85,1251.11l61.52-33.39c6.65-3.61,9.63-16.79,7.63-23.44l-86.61,33.53c6.24,9.14,11.72,16.57,17.46,23.3ZM731.24,1260.86l25.23-25.83-107.28-35.94c-2.61,6.84-4.85,15.34-6.12,23.85l88.17,37.92ZM1278.43,1222.08c160.28,11.46,319.72,10.27,478.11-2.51-160.36-19.51-317.69-19.63-478.11,2.51ZM606.45,1234.66l4.14,6.87c.66,1.09,6.65-.9,5.81-1.91l-3.58-4.33c-.81-.98-7.03-1.72-6.37-.63ZM1972.41,1266.22c-34.96-12.94-71.52-25.36-109.04-29.11-233.43,22.9-465,25.7-698.15,2.45-41.04,8.7-77.1,16.67-118.02,31.62,306.31,43.95,617.39,45.39,925.22-4.96ZM2118.12,1302.89l114.41-39.93c-5.09-11.98-12.29-22.33-20.29-25.18l-140.3,36.91,46.18,28.19ZM889.63,1309.55l54.97-29.74-158.51-36.42c-10.02,7.48-17.82,15.09-27.29,27.4l130.84,38.76ZM707.16,1305.32l9.25-22.61-72.79-30.17c.18,4.89,2.95,16.8,7.38,19.43l56.16,33.36ZM2298.63,1262.41l-27.2,9.98c-1.84.67-5.79,9.4-4.3,10.67l5.18,4.43,26.33-25.08ZM1878.42,1351.81c70.16-10.25,135.21-21.8,202.1-40.36-19.2-12.78-37.42-21.66-56.54-27.91-101.4,19.22-200.21,30.43-304.56,39.18,52.8,7.11,103.79,15.54,158.99,29.09ZM2165.32,1347.93l73.09-37.94c5.28-2.74,3.7-20.22,1.7-21.94l-97.39,34.48,22.59,25.4ZM1309.64,1325.31c-106.58-8.63-210.23-18.37-316.7-36.86l-67.55,30.38c74.78,11.1,146.19,45.86,219.23,33.78l165.02-27.29ZM829.42,1356.88l29.37-27.8-114.62-35.37c-6.25,3.65-11.24,16.95-9.71,25.07l94.96,38.1ZM702.52,1338.97c-3.27-13.22-11.95-16.9-23.03-16.38l23.03,16.38ZM2005.74,1398.38l131.84-40.2c-8.84-12.11-16.66-19.76-26.44-26.8l-170.78,37.86,65.39,29.13ZM1009.02,1404.19l75.66-29.74-188.6-36.44c-12.74,5.35-25.51,15.59-36.67,27.93l149.61,38.24ZM1797.09,1361.53c-191.63-34.22-382.18-30.12-565.5,3.11,191.9,18.95,378.91,17.45,565.5-3.11ZM798.88,1401.35l11.96-23.93-79.67-31.39c-1.24,2.89-.1,17.56,4.88,20.34l62.83,34.98ZM2182.58,1384.66c12.77-9.01,24.07-18.45,32.59-30.56l-35.95,14.37c-4.17,1.67-.42,15.72,3.37,16.18ZM1634.31,1446.1c113.04-.73,219.47-18.78,326.87-38.21-29.68-13.55-56.08-23.32-85.81-29.03-242.2,32.32-483.78,32.44-726.47,4.18-32.8,6.87-62.81,17.69-93.8,30.26,117.63,19,231.29,35.04,348.82,34.28l230.39-1.48ZM2068.35,1444.31l85.63-39.94c-.15-8.48-1.86-19.34-4.09-22.55l-111.32,35.33,29.78,27.17ZM933.32,1451.25l39.2-28.18-134.6-36.18c-5.18,7.99-9.58,16.12-13.93,25.91,37.84,15.32,72.94,28.4,109.32,38.45ZM763.98,1412.72l24.87,25.87c11.43-12.59-16.46-23.74-24.87-25.87ZM2040.9,1452.98l-41.14-27.23c-79.2,18.09-154.8,29.02-232.21,39.14,37.16,3.6,72.49,25.02,108.21,25.05,56.92.05,109.01-23.19,165.14-36.97ZM1145.23,1498.68l119.31-31.43c-84.06-7.07-166.96-18.93-251.46-35.61-17.39,8.21-32.47,16.84-48.48,28.84,61.48,17.15,119.08,29.03,180.62,38.19ZM891.5,1497.67l17.72-25.21-89.96-32.94c-3.38,2.1-1.51,19.86,3.64,22.53l68.6,35.62ZM2091.49,1483.39c17.59-11.38,31.45-23.44,47.97-41.3l-56.29,22.68,8.32,18.62ZM1816.67,1503.64c-59.81-16.28-120.93-24.2-184.43-29.08l-228.25,1.45c-65.81,5.9-130.47,13.56-192.38,32.04,204.45,24.91,403.22,23.67,605.06-4.41ZM1966.02,1539.18c34.34-11.19,67.65-24.3,99.17-39.86.49-8.65-3.92-20.29-9.5-23.81l-135.62,35.89,45.94,27.78ZM1039.91,1546.8l53.24-29.45-152.72-35.7c-9.2,4.93-17.45,15.2-22.79,26.48l122.26,38.67ZM879.35,1519.75c-7.6-3.39-24.97-10.34-34.67-13.82l31.92,28.39c2.17-.17,6.53-12.87,2.75-14.56ZM1701.59,1590.08c81.27-9.08,154.06-20.07,231.37-41.63-19.99-10.97-38.99-21.07-61.31-27.25-240.36,40.16-481.77,39.53-722.87,4.98-25.54,6.68-47.58,17.36-72.62,29.45,84.04,18.58,167.89,30.92,256.15,37.27,123.38-20.04,243.47-21.01,369.28-2.82ZM986.8,1593.44l24.15-26.69-104.11-34.16-.87,23,80.82,37.85ZM2001.17,1581.54c23.65-15.42,40.1-26.34,54.19-47.47l-68.29,25.92,14.09,21.55ZM1854.85,1635.06c42.81-10.34,81.69-23.37,121.75-40.86-5.39-10.71-10.67-18.32-17.74-25.07-59.71,15.87-117.56,27.99-178.83,37.65l74.83,28.28ZM1161.35,1637.27c28.34-1.59,55.17-22.47,82.94-25.42l-199.17-36.35c-11.56,6.5-22.3,15.98-30.47,28.16,50.5,11.98,95.56,36.48,146.7,33.62ZM971.74,1614.8l-48.9-20.45c15.36,16.28,26.05,25.2,43.48,38.88,2.28-4.89,5.04-14.07,5.43-18.43ZM1808.27,1645.41c-34.04-11.43-71.25-29.49-108.14-27.17-124.09,7.82-243.7,8.72-367.61,2.9-42.65-2-85.47,19.18-124.5,29.52,200.26,31.01,401.55,32.57,600.25-5.25ZM1084.51,1688.81l35.61-27.92-119.73-33.97c-5.33,1.34-8.77,18.1-5.09,23.85,27.74,14.08,58.62,26.89,89.22,38.03ZM1909.69,1678c27.71-14.12,50.91-30.52,65.03-52.89l-90.53,29.91,25.5,22.99ZM1305.56,1735.62c138.89-32.75,278.06-35.45,414.48-4.43,56.64-8.64,108.36-20.24,161.75-41.42-8.01-11.47-20.07-21.55-32.55-26.32-219.35,48.57-467.99,46.49-687.53,5.2-18.16,9.44-32.13,17.63-46.02,29.43,64.9,18.82,123.2,30.06,189.87,37.53ZM1066.98,1709.92l-62.62-24.35c16.19,18.03,30.59,30.7,51.88,45.18l10.74-20.83ZM1190.96,1783.45l52.74-28.85-150.51-35.33c-4.32,6.69-8.06,15.12-11.43,25.53,35.53,16.4,71.63,30.04,109.2,38.65ZM1813.51,1776.03c29.86-14.7,65.15-29.03,76.42-59l-115.78,32.51,39.37,26.49ZM1626.5,1742c-80.22-11.59-151.35-6.55-222.58,1.47,76.79,6.87,151.1,5.17,222.58-1.47ZM1780.78,1785.44c-20.02-11.84-42.76-25.19-64.67-26.55-136.7,19.06-270.34,17.86-407.74,4.74-27.21.7-55.79,17.31-80.34,29.54,163.47,36.78,391.87,42.18,552.75-7.72ZM1164.44,1804.5l-75.17-26.49c14.16,23.06,34.78,36.6,58.6,49.6l16.57-23.11ZM1800.9,1808.16c-66.65,19.09-130.94,30.07-198.77,35.97l103.43,24.93c15.09,6.05,111.1-33.65,95.33-60.9ZM1308.73,1878.73c43.11-17.62,83.16-24.3,128.2-32.29-82.15-4.32-161.67-14.33-242.34-33.88-9.72,9.1-16.15,16.62-21.33,27.55,44.82,18.34,87.76,30.17,135.47,38.62ZM1657.19,1882.33c-97.02-22.42-193.22-19.18-290.33,4.57,96.76,12.96,194.95,12.62,290.33-4.57ZM1270.24,1898.45l-97.8-28.56c14.71,29.96,44.66,43.96,69.15,54.15l28.65-25.59ZM1703.38,1931.76c7.87-4.3,13.22-17.2,9.29-22.39-5.39-7.11-14.29-8.17-23.43-6.27-124.79,26-250.74,22.73-376.51,3.32-16.78,4.88-32.97,15.91-44.29,29.14,114.22,39.9,330.9,53.03,434.94-3.8ZM1339.82,2020.29c21.77-14.37,38.47-22.14,60.69-30.25-48.51-5.24-94.22-16.08-143.92-29.7,3.11,29.68,58.34,54.42,83.23,59.96ZM1625.57,2020.23c-39.51-37.27-205.92-20.79-251.26,9.22,61.58,18.52,205.51,23.59,251.26-9.22Z"/>
  </g>
</svg>