<?xml version="1.0" encoding="UTF-8"?>
<svg id="Lag_2" data-name="Lag 2" xmlns="http://www.w3.org/2000/svg" viewBox="0 0 823.55 1713.25">
  <defs>
    <style>
      .cls-1 {
        fill: #ff3400;
      }
    </style>
  </defs>
  <g id="Lag_1-2" data-name="Lag 1">
    <g>
      <path class="cls-1" d="M459.79,872.78l-192.98-436.23L459.72,0l192.92,436.52-192.86,436.26ZM374.56,406.8l64.59-286.11-126.07,285.85,61.48.25ZM606.35,406.64l-117.4-265.82,60.05,266.24,57.35-.42ZM517.42,402l-55.66-242.13-55.77,243.17,111.43-1.04ZM375.12,465.41c-24.45-.26-42.59-.09-62.09,1.81l126.47,285.91-64.39-287.72ZM517.32,466.07l-111.33.6,55.78,243.25,55.55-243.85ZM606.17,466.77l-58.06-.92-59.98,267.52,118.04-266.6Z"/>
      <path class="cls-1" d="M193.05,1445.65L0,1009.39l192.85-437.07,192.98,436.32-192.78,437.01ZM107.55,978.95l63.7-282.73-125.17,282.79,61.47-.05ZM339.26,977.34l-115.03-259.86,58.33,261.71c21.32.56,39.55.54,56.7-1.85ZM250.43,974.37l-55.68-242.27-55.66,242.3,111.34-.04ZM108.62,1038.24l-62.32,1.06,127.99,289.53-65.67-290.59ZM250.12,1038.02l-110.98.03,55.67,242.31,55.31-242.34ZM339.7,1038.99l-58.55-.87-60.77,270.3,119.32-269.43Z"/>
      <path class="cls-1" d="M630.65,1713.25l-192.92-436.15,192.9-437.13,192.92,436.54-192.9,436.75ZM544.19,1246.65l62.96-279.13-123.7,279.49,60.75-.37ZM777.35,1246.48l-117.38-265.39,59.29,265.98,58.09-.58ZM687.24,1241.09l-55.83-238.13-55.57,238.76,111.4-.63ZM545.16,1305.38l-61.53.99,126.39,286.08-64.86-287.07ZM687,1305.54l-110.89.04,55.48,239.32,55.41-239.36ZM776.9,1306.97c-25.47-1.64-40.41-1.69-59.16-.92l-61.6,274.09,120.77-273.17Z"/>
    </g>
  </g>
</svg>