<?xml version="1.0" encoding="UTF-8"?>
<svg id="Lag_2" data-name="Lag 2" xmlns="http://www.w3.org/2000/svg" viewBox="0 0 2775.5 2197.21">
  <defs>
    <style>
      .cls-1 {
        fill: #ff3400;
      }
    </style>
  </defs>
  <g id="Lag_1-2" data-name="Lag 1">
    <g>
      <path class="cls-1" d="M1404.69,2195.98c-11.34,1.66-22.96,1.64-34.04-.05-42.95-105.6-43.52-219.63.8-326.37-54.41-125.05-166.21-229.19-276.9-304.05-217.72-16.51-504.51-58.3-698.5-155.87-65.04-32.72-151.31-91.64-149.62-174.68l-240.76-43.24c-7.48-1.34-7.04-23.43-1.65-29.78l247.43,43.69c10.09-20.68,20.66-38.63,38.84-59.23l-192.46-33.77c-4.38-6.09-4.7-17.01-2.33-28.07l219.46,38.4,43.98-31.43-128.38-21.98c-3.22-5-3.15-16.8-.6-25.2l164.66,28.03c158.66-77.92,372.22-120.22,549.06-141.08,295.83-34.9,592.57-34.57,888.41.17,178.5,20.96,388.21,63.01,548.31,141.06l164.99-28.15c2.81,8.09,2.97,20.44-.85,25.21l-128.11,22.22,43.98,31.15,216.88-38.13c6.1,3.76,6.48,25.35.1,27.32l-191.27,33.83c15.12,21.09,25.92,37.64,36.51,59.57l248.49-43.55c5.88,6.68,6.3,28.06-1.52,29.78l-242.04,43.71c2.96,83.24-86.2,142.66-150.91,175.07-192.14,96.24-480.13,138.57-695.76,154.91-110.85,75.08-222.4,178.89-276.91,304.05,44.24,106.8,43.8,220.94.7,326.46ZM1817.12,960.09c66.59,19.47,158.18,45.33,206.76,100.19,29.34,33.13,26.77,77.25-4.49,108.76-70.41,71-230.18,105.37-329.42,119.47-211.37,30.04-424.62,29.06-635.49-4.92-91.9-14.81-240.21-50.18-302.43-119.07-27.93-30.93-28.21-73.22-.5-104.19,50.36-56.28,138.45-79.67,206.77-100.29-157.16,16.5-605.6,88.79-676.08,252.12,172.34,38.81,338.94,86.87,502.28,154.66,113.66,47.17,219.81,101.65,321.67,169.86,188.96,13.13,374.05,13.24,563.01-.02,101.8-68.26,208-122.68,321.7-169.85,162.8-67.67,329.23-115.44,501.59-154.66-71.48-163-517.72-235.52-675.38-252.06ZM1038.95,1529.74c-98.32-62.63-198.46-108.8-304.39-150.75-148.59-58.85-298.88-101.71-457.32-137,.76,27.95,14.3,52.06,34.12,72.23,136.17,138.56,531.96,201.37,727.59,215.53ZM2343.48,1394.21c56.76-27.42,153.47-81.93,153.62-151.99-262.45,59.02-532.18,145.08-761.77,287.9,125.68-10.22,243.18-28.59,362.81-55.99,85.05-19.48,164.37-44.27,245.34-79.92ZM1622.46,1569.89c-158.37,8.72-311.13,8.56-469.61.03,95.51,73.53,179.18,154.53,234.84,263.65,54.16-106.68,137.95-189.19,234.77-263.67ZM1387.6,2154.33c26.21-78.39,26.21-163.17,0-241.56-25.95,80.28-25.96,161.28,0,241.56Z"/>
      <path class="cls-1" d="M1376.8,873.68l-193-436.17L1376.74,0l192.88,436.95-192.82,436.73ZM1291.22,407.39l62.37-279.72-123.87,279.51,61.5.2ZM1523.57,407.09l-117.06-263.83,59.61,263.91,57.45-.08ZM1434.35,401.22l-55.62-241.88-55.68,243.02,111.3-1.14ZM1292.27,465.86l-62.52.95,127.52,288.48-64.99-289.43ZM1434.55,466.04l-111.11-.02,55.46,241.68,55.64-241.66ZM1523.76,466.78l-58.89-.76-61.91,273.68,120.79-272.92Z"/>
    </g>
  </g>
</svg>