<?xml version="1.0" encoding="UTF-8"?>
<svg id="Lag_2" data-name="Lag 2" xmlns="http://www.w3.org/2000/svg" viewBox="0 0 2199.34 2060.81">
  <defs>
    <style>
      .cls-1 {
        fill: #ff3400;
      }
    </style>
  </defs>
  <g id="Lag_1-2" data-name="Lag 1">
    <path class="cls-1" d="M1280.34,1010.92c-78.3-11.76-144.32-50.86-193.22-115.22-51.19,57.32-117.01,93.93-195.41,100.94-55.82,71.62-82.07,163.81-93.36,254.46,53.77,116.64,225.1,555.55,72.54,632.79l49.63,154.8c1.46,4.54-11.87,12.78-17.44,10.05l-51.83-157.74-47.3-2.54,37.65,115.49c1.18,3.61-1.9,10.31-3.38,12.05-1.93,2.28-11.87,1.64-13.22-2.46l-44.1-133.62-32.88-18.27,26.34,80.13c.92,3.45-11.57,9.36-15.11,7.49l-33.16-99.27c-228.39-169.55-432.99-533.65-539.58-794.53-52.33-128.07-100.26-280.74-105.53-417.89l-62.47-81.72c-3.22-4.22,10.91-13.37,13.7-9.71l50.25,65.7,4.51-36.84L.65,464.11c-2.67-3.43,3.55-12.85,6.59-12.6,3.85.32,10.6,3.72,13.32,7.22l72.19,92.74,24.36-40.48L14.42,379.18c5.06-4.38,11.53-8.49,17.02-10.82l102,129.75c151.5-81.28,417.83,305.1,484.51,414.16,45.61,23.72,91.61,40.59,141.18,54.28,41.12,8.39,80.32,13.46,122.34,10.72,48.56-58.92,114.71-95.39,192.26-105.01-22.59-69.29-21.92-139.96,6.8-208.69-14.56-31.72-31.95-58.23-52.29-85.39-38.47-44.74-80.45-83.77-129.4-116.66-122.38-6.65-595.07-61.22-592.32-233.12l-161.99-28.69-1.55-20.39,166.99,28.73,23.99-40.13-117.03-20.97c-2.92-.52-8.21-3.11-10.51-4.57-3.05-1.94,2.08-16,6.06-15.29l138.37,24.51,32.75-21.22-80.88-13.21c-4.06-.66-5.7-17.55-.96-16.82l104.58,16.02c114.73-55.82,261.63-84.92,386.66-99.27,264.19-30.31,576.5-23.07,835.06,44.14,53,13.78,100.12,33.24,150.56,55.32l100.23-16.61c2.96-.49,8.96,8.36,7.14,10.76s-7.69,6.27-11.53,6.96l-71.19,12.88c9.15,7.41,17.93,14.07,28.31,20.73l137.68-24.03c3.72-.65,10.09,8.99,8.44,11.46s-7.26,7.58-10.51,8.14l-117.52,20.3,23.68,40.61,163.3-28.17c4.02,2.82,4.74,19.29.19,20.11l-159.3,28.86c.82,172.79-472.08,226.3-594.03,233.12-44.25,30.37-82.36,64.73-118.42,104.07-24.89,30.7-46.11,61.31-62.72,97.78,28.63,68.96,30.51,141.36,4.75,213.37,74.29,15.27,138.22,52.99,183.54,114.94,37.38,4.16,73.41,2.4,111.18-2.37,55.11-10.7,106.44-26.01,157.24-49.61,71.87-104.62,356.02-474.14,504.57-388.13l105.96-121.14c3.43-3.93,15.44,3.39,17.96,9.59l-108.51,124.99,22.68,41.05,82.04-93.54c3.25-3.7,18.22,6.86,15.1,10.47l-91.85,106.12c.13,11.11,1.08,22.26,2.84,36.43l47.83-55.37c2.76-3.2,8.4-5.94,11.7-4.49,3.78,1.66,5,11.45,2.47,14.38l-63.11,72.99c-9.55,124.54-59.89,265.53-111.8,380.13-86.23,190.36-193.44,368.01-322.35,532.4-77.01,98.2-170.37,197.47-273.88,266.33l-39.22,96.55c-1.64,4.04-15.49-5.07-13.92-9.12l28.12-72.73c-12.37,3.49-23.34,7.61-32.24,12.3l-52.51,134.43c-7.35,1.01-17.08-7.01-15.15-11.98l44.93-115.74-47.05-.42-60.27,155.1c-6.05,2.02-17.5-4.68-17.68-9.71l58.12-152.3c-145.67-89.59,44.82-510.03,105.64-626.91-6.21-92-26.63-181.68-79.19-260.59ZM1454.4,56.87c26.45,12.83,51.82,25.77,73.58,45.54,22.71,25.39,24.59,59.03-.17,84.01-47.12,47.52-147.51,71.09-214.8,81.41-146.55,22.48-293.86,22.51-440.45.27-67.36-10.22-171.31-34.19-217.86-83.06-24.49-25.71-21.26-61.66,4.44-85.26,21.02-19.31,46.42-31.3,72.15-43.34-94.53,12.01-349.11,63-390.44,158.62,117.21,26.85,229.22,59.63,340.44,105.69,74.58,31.32,142.38,66.34,210.1,110.19,134.31,10.09,264.52,10.15,399.47.35,168.34-109.41,354.35-170.34,551.62-216.48-38.5-93.54-294.83-147.02-388.09-157.93ZM842.28,425.18c-153.7-94.59-335.47-151.2-505.39-189.53,13.01,126.37,409.37,186.43,505.39,189.53ZM1846.87,235.39c-174.41,38.9-364.69,100.77-507.3,190.68,106.29-5.83,494.38-64.64,507.3-190.68ZM1243.12,465.33c-102.26,3.25-201.18,4.13-305.55-.88,62.64,47.6,115.41,102.11,153.93,173.51,37.55-70.14,88.61-122.31,151.62-172.63ZM558.98,878.27c-55.3-92.29-286.14-401.61-405.09-356.81,68.05,79.79,138.77,153.24,217.85,221.29,59.1,50.86,118.43,97.84,187.24,135.52ZM599.68,1635.36c-29.76-8.36-51.91-25.26-80.13-45.04,52.6,75.58,220.34,279.16,323.06,269.46-52.27-197.14-85.12-387.43-67.89-588.34-54.72-123.32-115.91-238.89-187.55-351.7-175.16-96.79-316.57-232.46-449.21-384.61-66.61,82.16,11.07,332.99,44.11,424.54-2.02-32.92-4.51-64.28,5.23-94.49,10.89-33.81,43.25-50.03,76.81-38.57,24.66,8.42,47.8,22.34,67.88,39.94,134.36,117.71,248.78,329.2,307.86,496.35,22.89,64.75,89.74,289.96-40.19,272.47ZM1619.28,909.79c156.27-80.42,303.9-210.11,421.91-335.23-117.15-49.68-366.08,251.23-421.91,335.23ZM1469.26,1620.22c-16.77-64.44,15.59-164.68,40.56-225.69,67.17-164.14,190.57-366.26,329.05-478.83,22.59-18.36,47.76-32.93,75.15-41.05,35.94-10.66,69.09,9.4,76.89,46.02,6.18,29.05,2.18,57.99.32,90.64,37.24-88.72,129.08-335.87,66.05-422.9-139.9,144.41-288.38,272.98-468.37,360.98-77.79,109.88-144.85,221.64-206.37,342.55,5.15,202.75-36.05,388-99.09,583.15,105.67,15.74,283.94-184.46,342.51-256.56-29.42,19.09-53.08,36.87-83.85,44.35-32.65,7.93-63.7-7.49-72.85-42.68ZM1091.11,856.02c18.22-50.83,19-104.8.78-159.12-19.24,50.49-17.58,106.48-.78,159.12ZM1059.09,895.79c-55.25,9.19-104.76,33.6-145.42,77.25,55.36-9.76,105.48-36.47,145.42-77.25ZM1256.84,983.98c-37.58-44.99-85.74-70.82-136.91-81.99,36.11,43.25,84.92,72.28,136.91,81.99ZM863.44,999.24c-82.24-.8-149.48-21.59-223.36-52.79,51.44,89.32,98.93,174.57,142.03,269.5,14.14-76.57,36.8-149.67,81.34-216.7ZM1377.86,1235.08c49.38-91.28,99.27-173.83,157.16-261.74-74.8,27.14-148.12,44.9-227.53,42.06,42.56,69.48,58.98,142.71,70.37,219.67ZM793.16,1317.36c-11.23,184.33,23.55,369.95,70.12,536.49,107.89-74.89-35.05-463.52-70.12-536.49ZM1263.86,1867.49c32.36-96.27,56.14-187.93,74.79-284.21,13.56-82.3,24.78-160.59,22.69-246.26-48.25,92.58-197.98,454.57-97.48,530.47Z"/>
  </g>
</svg>