<?xml version="1.0" encoding="UTF-8"?>
<svg id="Lag_2" data-name="Lag 2" xmlns="http://www.w3.org/2000/svg" viewBox="0 0 2280.82 1385.54">
  <defs>
    <style>
      .cls-1 {
        fill: #ff3400;
      }
    </style>
  </defs>
  <g id="Lag_1-2" data-name="Lag 1">
    <path class="cls-1" d="M2246.93,1132.62c-120.3,140.92-474.59,204.15-654.82,225.79-309.67,37.19-621.2,36.17-930.49-3.26-176.11-22.45-521.29-86.88-634.56-229.81-38.47-48.55-35.05-110.28,4.63-157.26,30.7-36.36,69.62-61.78,112.38-84.79,180.27-89.75,401.35-125.78,600.73-148.95-31.53-194.01-.09-406.99,111.52-567.29,38.36-53.15,83.1-97.53,140.25-129.06,145.81-80.43,301.16-26.03,402.22,96.15,101.91,123.23,145.53,286.9,148.93,444.65,201.22,24.16,422.75,61.11,601.31,154.37,71.73,40.92,155.88,105.43,125.34,199.11,8.79,26.93,7.63,53.32-.59,80.24,14.34,43.18,2.34,85.89-26.86,120.1ZM1467.12,313.22c-28.31-76.65-70.43-145.71-130.35-200.72-111.63-102.47-255.96-111.61-374.64-15.58-64.95,52.56-111.13,122.24-142.01,200.32,36.81-50.29,77.48-94.92,131.15-128.38,189.05-117.86,404.97-36.49,515.86,144.36ZM1153.58,552.8l-47.78,57.68c-28.31,34.17-37.81,79.04-25.97,121.51l96.51.11c-8.7-39.05.69-74.72,26.33-103.67l52.46-59.23c41.63-47,56.78-110.71,38.04-171.12-27.91-89.94-154.74-95.23-229.07-71.63-82.2,26.11-84.64,102.29-80.72,173.09l100.78.45,1.52-66.76c.7-30.82,25.98-43.7,53.8-42.78,22.36.74,46.04,7.36,50.67,32.44,8.46,45.85-5.69,92.63-36.58,129.92ZM2249.53,887.34c.24-62.23-89.19-115.51-134.73-138.2-160.46-79.95-388.4-120.01-566.96-140.05l-1.68,47.41c194.09,22.42,427.88,62.74,598.91,152.58,39.99,21.01,72.81,46.97,104.46,78.26ZM2249.4,967.8c1.72-31.67-17.42-51.24-34.12-72.45-71.32-69.09-198.29-113.43-294.27-139.84-125.09-34.42-249.99-54.83-378.6-68.99l-5.75,47.91c192.54,21.69,425.64,61.3,598.14,148.69,43.78,22.18,80.95,49.49,114.6,84.68ZM2242.08,1083.32c-26.23-63.75-137.34-113.62-199.42-138.55-171.29-62.79-347.99-91.92-530.65-110.99-38.36,122.93-111.45,245.83-225.96,309.88-96.76,54.8-211.37,51.15-305.41-8.21-125.4-78-200.11-228.05-229.91-371.47-201.53,23.02-441.59,61.42-619.23,160.22-31.94,20.32-61.48,41.4-83.2,71.43-46.9,64.83,2.62,125.74,57.37,162.8,52.67,35.64,109.07,60.09,169.96,80.88,456.38,155.77,1294.58,156.47,1748-6.99,66.45-23.96,191.11-78.26,218.45-149ZM2249.4,1035.78c-14.41-67.1-104.96-117.68-168.06-145.26-163.74-71.57-371.07-106.52-550.78-126.62l-9.67,40.46c196.5,21.46,430.53,58.97,609.55,146.89,44.55,21.88,82.54,48.65,118.95,84.52ZM1179.54,768.82h-103.93v79.96h103.93v-79.96ZM1204.81,1144.29c127.92-33.01,219.76-156.75,262.82-275.92-111.79,181.89-322.14,262.54-514.38,146.48-55.08-33.04-96.36-78.97-133.38-130.26,58.66,154.45,205.47,306,384.93,259.69Z"/>
  </g>
</svg>