<?xml version="1.0" encoding="UTF-8"?>
<svg id="Lag_2" data-name="Lag 2" xmlns="http://www.w3.org/2000/svg" viewBox="0 0 3009.89 906.17">
  <defs>
    <style>
      .cls-1 {
        fill: #ff3400;
      }
    </style>
  </defs>
  <g id="Lag_1-2" data-name="Lag 1">
    <path class="cls-1" d="M819.93,378.04l31.46-18.3-88.93-14.55c-3.22-.53-2.99-11.1-.78-14.69l111.88,17.88c93.57-38.94,201.44-61.79,303.51-74.87,218.56-28,438.06-27.84,656.71.08,99.11,12.65,210.69,35.88,302.11,74.86l110.59-17.53c4.58-.73,5.65,13.63,1.43,14.32l-87.74,14.33,29.28,18.57,144.84-23.77c2.45,3.7,2.97,15.8-.79,16.42l-127.82,21.14c28.91,23.6,41.5,56.08,27.48,88.88.79,31.87-13.96,58.61-35.27,81.37-101.84,103.8-352.9,149.67-494.44,166.22-199.95,23.37-400.14,23.34-600.31,1.15-154.84-17.17-471.46-72.25-564.38-207.07-26.43-38.35-26.5-85.24-.2-123.83,72.22-106.01,281.91-162.24,403.01-187.33,260.29-53.93,561.09-62.17,825.1-37.77,191.23,17.67,472.57,64.93,632,174.02,27.84,19.05,51.58,40.85,70.44,68.13,30.21,43.68,30.07,97.36-.28,141.18-19.55,28.22-44.53,50.84-73.3,70.53-164.08,112.27-462.41,163.3-659.63,182.4-240.24,23.26-481.2,21.78-721.08-4.91-199.97-22.25-503.43-78.82-665.54-200.31-68.81-51.57-120.38-129.83-69.88-213.65,42.44-70.43,131.15-119.85,205.65-152.02,170.73-73.71,390.23-115.3,575.7-135.63,303.03-33.22,608.54-30.89,910.92,8.2,206.83,26.74,512.74,89.65,680.34,215.44,31.09,23.33,57.56,49.7,77.45,82.84,28.51,47.48,28.84,103.69.75,151.34-16.91,28.69-38.63,52.46-64.52,73.73-192.57,158.17-600.2,226.62-845.44,250.78-389.23,38.35-832.53,25.14-1215.7-57.49-171.87-37.06-499.44-128.15-585.94-294.18-44.56-85.52-3.46-166.59,62.48-225.2C282.07,130.15,735.59,52.31,999.04,24.98c330.58-34.28,663.27-33.27,993.82,2.94,264.8,29,653.31,101.09,874.7,251.07,65.02,44.04,131.74,107.03,142.15,188.58,1.04,8.13-2.58,15.92-9.57,17.09s-14.8-3.78-15.64-11.9c-7.82-75.83-73.87-135.94-133.75-176.1-209.34-140.38-572-211.12-821.67-240.78-353.19-41.97-710.13-43.17-1063.74-3.42-248.14,27.9-642.81,100.27-842.07,252.75-72.43,55.42-131.39,138.53-76.22,228.68,20.52,33.52,47.98,60.22,79.95,84.08,189.02,141.03,549.49,209.56,782.6,236.6,316.95,36.77,636.8,37.73,953.9,2.73,226.78-25.03,578.1-89.18,763.81-223.24,30.27-21.85,56.18-46.29,76.29-77.02,53.83-82.29,2.18-158.87-65.5-210.32-163.43-124.24-471.25-186.46-673.98-212.44-299.42-38.36-601.86-40.41-901.97-7.45-203.91,22.4-509.77,78.97-679.37,194.46-29.7,20.22-55.37,43.25-75.63,72.17-53.58,76.51-2.36,149.13,62.03,195.91,158.76,115.36,449.76,169.56,643.99,191.59,228.9,25.96,458.27,28.36,687.63,8.5,198.74-17.21,499.85-65.38,668.06-173.21,27.43-17.58,51.93-37.23,71.83-62.69,40.1-51.29,31.56-103.68-12.08-148.96-110.22-114.37-381.81-171.27-536.89-192.64-270.54-37.27-544.8-37.8-815.35-.21-142.82,19.84-418.98,75.78-510.73,191.39-27.52,34.68-28.29,78.55-.87,113.35,86.72,110.09,340.07,162.17,474.9,181.1,230.47,32.35,463.71,33.34,694.51,3.12,87.11-11.41,170.71-28.32,253.78-54.29,61-19.07,171.52-61.19,205.31-119.46-68.04,41.8-143.76,65.18-219.87,81.68-227.9,49.4-503.25,55.03-734.96,31.59-117.4-11.88-373.28-49.41-450.27-142.12-16.57-19.95-22.51-46.12-11.91-69.94,13.5-30.35,35.23-35.57,18.89-38.21l-114.71-18.48c-2.39-.39-6.08-3.39-7.17-5.15-1.47-2.38,2.24-11.79,6.43-11.22,42.51,5.8,94.04,14.15,140.23,22.95ZM1835.7,294.6c27.05,11.21,55.05,21.29,76.32,41.77,77.52,89.71-145.4,130.62-197.74,138.18-135.67,19.62-272.17,19.74-408.19,1.5-53.14-7.12-226.74-37.62-224.34-106.7.45-13.04,8.48-24.79,17.97-35.03,21.91-18.4,47.34-29,73.38-39.51-99.34,12.98-235.98,39.86-322.2,89.03-33.17,18.92-78.7,56.63-48.45,97.84,61.98,84.43,303.35,123.07,405.37,134.78,198.46,22.79,397.37,22.82,595.84-.15,102.93-11.91,339.22-50.01,403.32-133.66,14.43-18.83,13.46-42.57-1.53-60.95-62.47-76.61-271.18-114.55-369.75-127.11Z"/>
  </g>
</svg>