<?xml version="1.0" encoding="UTF-8"?>
<svg id="Lag_2" data-name="Lag 2" xmlns="http://www.w3.org/2000/svg" viewBox="0 0 2774.14 1398.31">
  <defs>
    <style>
      .cls-1 {
        fill: #ff3400;
      }
    </style>
  </defs>
  <g id="Lag_1-2" data-name="Lag 1">
    <path class="cls-1" d="M1432.86,1294.06c-24.25,30.62-33.91,64.47-45.67,104.25-11.77-37.13-20.93-71.28-43.1-103.24L274.82,987.32c-90.93,18.94-179.08,34.88-272.51,48.93-2.99-10.32-2.95-19.41-.6-30.19,316.98-46.58,669.84-135.91,953.17-288.67,161.79-87.23,338-214.56,416.36-388.13-43.55-105.39-44.4-221.31-1.18-326.25,10.65-4.06,25.46-4.14,35.03.44,41.94,104.09,42.93,219.71-1.56,324.64,51.14,119.14,158.6,221.43,264.25,295.83,303.03,213.38,740.73,329.04,1104.72,381.96,2.06,9.41,2.1,17.37.52,30.25l-272.5-49.18-1067.67,307.1ZM1387.57,282.97c26.16-78.69,25.96-160.98-.32-237.42-26.28,78.85-26.13,161.07.32,237.42ZM1387.07,567.67c11.31,40.48,23.72,72.76,44.84,104.67l561.8,161.29c-89.69-39.78-177.27-80.5-262.25-132.34-136.96-84.35-268.01-190.54-344.05-335.93-33.02,62.3-72.19,113.3-119.44,162.15-57.26,57.31-118.5,105.37-186.72,149.73-94.68,62.43-193.01,108.68-298.71,155.82l560.98-161.29c21.56-32.78,31.97-65.45,43.55-104.1ZM1186.26,982.47l139.34-274.42-956.62,275.29,957.16,275.3-139.87-276.16ZM1449.58,1258l954.53-274.76-954.43-274.52,138.78,274.46-138.88,274.81ZM1438.6,1209.52l116.51-227.03-119.66-233.15,59.14,232.87-55.99,227.31ZM1334.12,1205.49l-54.94-223.1,58.26-229.28-117.79,229.88,114.47,222.5Z"/>
  </g>
</svg>